<svg width="158" height="22" viewBox="0 0 158 22" fill="none" xmlns="http://www.w3.org/2000/svg">
<path d="M32.7266 17L31.3203 13.375H26.7422L25.3438 17H24L28.4688 5.53125H29.6641L34.1016 17H32.7266ZM30.9219 12.1953L29.5859 8.59375C29.5547 8.5 29.5026 8.34635 29.4297 8.13281C29.362 7.91927 29.2917 7.69792 29.2188 7.46875C29.1458 7.23958 29.0859 7.05469 29.0391 6.91406C28.987 7.1276 28.9297 7.34115 28.8672 7.55469C28.8099 7.76302 28.7526 7.95833 28.6953 8.14062C28.638 8.31771 28.5885 8.46875 28.5469 8.59375L27.1875 12.1953H30.9219ZM39.5469 8.28125C40.5625 8.28125 41.3307 8.53125 41.8516 9.03125C42.3724 9.52604 42.6328 10.3229 42.6328 11.4219V17H41.3516V11.5078C41.3516 10.7943 41.1875 10.2604 40.8594 9.90625C40.5365 9.55208 40.0391 9.375 39.3672 9.375C38.4193 9.375 37.7526 9.64323 37.3672 10.1797C36.9818 10.7161 36.7891 11.4948 36.7891 12.5156V17H35.4922V8.4375H36.5391L36.7344 9.67188H36.8047C36.987 9.36979 37.2188 9.11719 37.5 8.91406C37.7812 8.70573 38.0964 8.54948 38.4453 8.44531C38.7943 8.33594 39.1615 8.28125 39.5469 8.28125ZM49.3594 8.28125C50.375 8.28125 51.1432 8.53125 51.6641 9.03125C52.1849 9.52604 52.4453 10.3229 52.4453 11.4219V17H51.1641V11.5078C51.1641 10.7943 51 10.2604 50.6719 9.90625C50.349 9.55208 49.8516 9.375 49.1797 9.375C48.2318 9.375 47.5651 9.64323 47.1797 10.1797C46.7943 10.7161 46.6016 11.4948 46.6016 12.5156V17H45.3047V8.4375H46.3516L46.5469 9.67188H46.6172C46.7995 9.36979 47.0312 9.11719 47.3125 8.91406C47.5938 8.70573 47.9089 8.54948 48.2578 8.44531C48.6068 8.33594 48.974 8.28125 49.3594 8.28125ZM58.3203 8.29688C59.3411 8.29688 60.099 8.52604 60.5938 8.98438C61.0885 9.44271 61.3359 10.1745 61.3359 11.1797V17H60.3906L60.1406 15.7344H60.0781C59.8385 16.0469 59.5885 16.3099 59.3281 16.5234C59.0677 16.7318 58.7656 16.8906 58.4219 17C58.0833 17.1042 57.6667 17.1562 57.1719 17.1562C56.651 17.1562 56.1875 17.0651 55.7812 16.8828C55.3802 16.7005 55.0625 16.4245 54.8281 16.0547C54.599 15.6849 54.4844 15.2161 54.4844 14.6484C54.4844 13.7943 54.8229 13.138 55.5 12.6797C56.1771 12.2214 57.2083 11.9714 58.5938 11.9297L60.0703 11.8672V11.3438C60.0703 10.6042 59.9115 10.0859 59.5938 9.78906C59.276 9.49219 58.8281 9.34375 58.25 9.34375C57.8021 9.34375 57.375 9.40885 56.9688 9.53906C56.5625 9.66927 56.1771 9.82292 55.8125 10L55.4141 9.01562C55.7995 8.81771 56.2422 8.64844 56.7422 8.50781C57.2422 8.36719 57.7682 8.29688 58.3203 8.29688ZM60.0547 12.7812L58.75 12.8359C57.6823 12.8776 56.9297 13.0521 56.4922 13.3594C56.0547 13.6667 55.8359 14.1016 55.8359 14.6641C55.8359 15.1536 55.9844 15.5156 56.2812 15.75C56.5781 15.9844 56.9714 16.1016 57.4609 16.1016C58.2214 16.1016 58.8438 15.8906 59.3281 15.4688C59.8125 15.0469 60.0547 14.4141 60.0547 13.5703V12.7812ZM68.3594 5.57812H71.5938C73.0208 5.57812 74.0938 5.79167 74.8125 6.21875C75.5312 6.64583 75.8906 7.3724 75.8906 8.39844C75.8906 8.84115 75.8047 9.23958 75.6328 9.59375C75.4661 9.94271 75.2214 10.2318 74.8984 10.4609C74.5755 10.6901 74.1771 10.849 73.7031 10.9375V11.0156C74.2031 11.0938 74.6458 11.237 75.0312 11.4453C75.4167 11.6536 75.7188 11.9453 75.9375 12.3203C76.1562 12.6953 76.2656 13.1719 76.2656 13.75C76.2656 14.4531 76.1016 15.0469 75.7734 15.5312C75.4505 16.0156 74.9922 16.3828 74.3984 16.6328C73.8047 16.8776 73.1016 17 72.2891 17H68.3594V5.57812ZM69.6875 10.4766H71.875C72.8698 10.4766 73.5573 10.3125 73.9375 9.98438C74.3229 9.65625 74.5156 9.17708 74.5156 8.54688C74.5156 7.89583 74.2865 7.42708 73.8281 7.14062C73.375 6.85417 72.651 6.71094 71.6562 6.71094H69.6875V10.4766ZM69.6875 11.5938V15.8672H72.0625C73.0781 15.8672 73.7969 15.6693 74.2188 15.2734C74.6406 14.8724 74.8516 14.3333 74.8516 13.6562C74.8516 13.224 74.7552 12.8542 74.5625 12.5469C74.375 12.2396 74.0677 12.0052 73.6406 11.8438C73.2188 11.6771 72.6536 11.5938 71.9453 11.5938H69.6875ZM85.8906 12.7031C85.8906 13.4062 85.7995 14.0339 85.6172 14.5859C85.4349 15.138 85.1719 15.6042 84.8281 15.9844C84.4844 16.3646 84.0677 16.6562 83.5781 16.8594C83.0938 17.0573 82.5443 17.1562 81.9297 17.1562C81.3568 17.1562 80.8307 17.0573 80.3516 16.8594C79.8776 16.6562 79.4661 16.3646 79.1172 15.9844C78.7734 15.6042 78.5052 15.138 78.3125 14.5859C78.125 14.0339 78.0312 13.4062 78.0312 12.7031C78.0312 11.7656 78.1901 10.9688 78.5078 10.3125C78.8255 9.65104 79.2786 9.14844 79.8672 8.80469C80.4609 8.45573 81.1667 8.28125 81.9844 8.28125C82.7656 8.28125 83.4479 8.45573 84.0312 8.80469C84.6198 9.15365 85.0755 9.65885 85.3984 10.3203C85.7266 10.9766 85.8906 11.7708 85.8906 12.7031ZM79.375 12.7031C79.375 13.3906 79.4661 13.987 79.6484 14.4922C79.8307 14.9974 80.112 15.388 80.4922 15.6641C80.8724 15.9401 81.362 16.0781 81.9609 16.0781C82.5547 16.0781 83.0417 15.9401 83.4219 15.6641C83.8073 15.388 84.0911 14.9974 84.2734 14.4922C84.4557 13.987 84.5469 13.3906 84.5469 12.7031C84.5469 12.0208 84.4557 11.4323 84.2734 10.9375C84.0911 10.4375 83.8099 10.0521 83.4297 9.78125C83.0495 9.51042 82.5573 9.375 81.9531 9.375C81.0625 9.375 80.4089 9.66927 79.9922 10.2578C79.5807 10.8464 79.375 11.6615 79.375 12.7031ZM89.4297 4.84375V8.47656C89.4297 8.6849 89.4245 8.89583 89.4141 9.10938C89.4036 9.31771 89.3854 9.51042 89.3594 9.6875H89.4453C89.6224 9.38542 89.8464 9.13281 90.1172 8.92969C90.3932 8.72135 90.7057 8.5651 91.0547 8.46094C91.4036 8.35156 91.7734 8.29688 92.1641 8.29688C92.8516 8.29688 93.4245 8.40625 93.8828 8.625C94.3464 8.84375 94.6927 9.18229 94.9219 9.64062C95.1562 10.099 95.2734 10.6927 95.2734 11.4219V17H93.9922V11.5078C93.9922 10.7943 93.8281 10.2604 93.5 9.90625C93.1771 9.55208 92.6797 9.375 92.0078 9.375C91.3724 9.375 90.8646 9.4974 90.4844 9.74219C90.1094 9.98177 89.8385 10.3359 89.6719 10.8047C89.5104 11.2734 89.4297 11.8464 89.4297 12.5234V17H88.1328V4.84375H89.4297ZM99.25 17H97.9453V4.84375H99.25V17ZM103.289 8.4375V17H101.992V8.4375H103.289ZM102.656 5.23438C102.87 5.23438 103.052 5.30469 103.203 5.44531C103.359 5.58073 103.438 5.79427 103.438 6.08594C103.438 6.3724 103.359 6.58594 103.203 6.72656C103.052 6.86719 102.87 6.9375 102.656 6.9375C102.432 6.9375 102.245 6.86719 102.094 6.72656C101.948 6.58594 101.875 6.3724 101.875 6.08594C101.875 5.79427 101.948 5.58073 102.094 5.44531C102.245 5.30469 102.432 5.23438 102.656 5.23438ZM110.094 8.28125C111.109 8.28125 111.878 8.53125 112.398 9.03125C112.919 9.52604 113.18 10.3229 113.18 11.4219V17H111.898V11.5078C111.898 10.7943 111.734 10.2604 111.406 9.90625C111.083 9.55208 110.586 9.375 109.914 9.375C108.966 9.375 108.299 9.64323 107.914 10.1797C107.529 10.7161 107.336 11.4948 107.336 12.5156V17H106.039V8.4375H107.086L107.281 9.67188H107.352C107.534 9.36979 107.766 9.11719 108.047 8.91406C108.328 8.70573 108.643 8.54948 108.992 8.44531C109.341 8.33594 109.708 8.28125 110.094 8.28125ZM125.086 6.58594C124.456 6.58594 123.888 6.69531 123.383 6.91406C122.883 7.1276 122.456 7.4401 122.102 7.85156C121.753 8.25781 121.484 8.75 121.297 9.32812C121.109 9.90625 121.016 10.5573 121.016 11.2812C121.016 12.2396 121.164 13.0729 121.461 13.7812C121.763 14.4844 122.211 15.0286 122.805 15.4141C123.404 15.7995 124.151 15.9922 125.047 15.9922C125.557 15.9922 126.036 15.9505 126.484 15.8672C126.938 15.7786 127.378 15.6693 127.805 15.5391V16.6953C127.388 16.8516 126.951 16.9661 126.492 17.0391C126.034 17.1172 125.49 17.1562 124.859 17.1562C123.698 17.1562 122.727 16.9167 121.945 16.4375C121.169 15.9531 120.586 15.2708 120.195 14.3906C119.81 13.5104 119.617 12.4714 119.617 11.2734C119.617 10.4089 119.737 9.61979 119.977 8.90625C120.221 8.1875 120.576 7.56771 121.039 7.04688C121.508 6.52604 122.081 6.125 122.758 5.84375C123.44 5.55729 124.221 5.41406 125.102 5.41406C125.68 5.41406 126.237 5.47135 126.773 5.58594C127.31 5.70052 127.794 5.86458 128.227 6.07812L127.695 7.20312C127.331 7.03646 126.93 6.89323 126.492 6.77344C126.06 6.64844 125.591 6.58594 125.086 6.58594ZM137.469 12.7031C137.469 13.4062 137.378 14.0339 137.195 14.5859C137.013 15.138 136.75 15.6042 136.406 15.9844C136.062 16.3646 135.646 16.6562 135.156 16.8594C134.672 17.0573 134.122 17.1562 133.508 17.1562C132.935 17.1562 132.409 17.0573 131.93 16.8594C131.456 16.6562 131.044 16.3646 130.695 15.9844C130.352 15.6042 130.083 15.138 129.891 14.5859C129.703 14.0339 129.609 13.4062 129.609 12.7031C129.609 11.7656 129.768 10.9688 130.086 10.3125C130.404 9.65104 130.857 9.14844 131.445 8.80469C132.039 8.45573 132.745 8.28125 133.562 8.28125C134.344 8.28125 135.026 8.45573 135.609 8.80469C136.198 9.15365 136.654 9.65885 136.977 10.3203C137.305 10.9766 137.469 11.7708 137.469 12.7031ZM130.953 12.7031C130.953 13.3906 131.044 13.987 131.227 14.4922C131.409 14.9974 131.69 15.388 132.07 15.6641C132.451 15.9401 132.94 16.0781 133.539 16.0781C134.133 16.0781 134.62 15.9401 135 15.6641C135.385 15.388 135.669 14.9974 135.852 14.4922C136.034 13.987 136.125 13.3906 136.125 12.7031C136.125 12.0208 136.034 11.4323 135.852 10.9375C135.669 10.4375 135.388 10.0521 135.008 9.78125C134.628 9.51042 134.135 9.375 133.531 9.375C132.641 9.375 131.987 9.66927 131.57 10.2578C131.159 10.8464 130.953 11.6615 130.953 12.7031ZM142.758 17.1562C141.674 17.1562 140.815 16.7865 140.18 16.0469C139.549 15.3073 139.234 14.2083 139.234 12.75C139.234 11.276 139.557 10.1641 140.203 9.41406C140.849 8.65885 141.708 8.28125 142.781 8.28125C143.234 8.28125 143.63 8.34115 143.969 8.46094C144.307 8.58073 144.599 8.74219 144.844 8.94531C145.089 9.14323 145.294 9.36979 145.461 9.625H145.555C145.534 9.46354 145.513 9.24219 145.492 8.96094C145.471 8.67969 145.461 8.45052 145.461 8.27344V4.84375H146.758V17H145.711L145.516 15.7812H145.461C145.299 16.0365 145.094 16.2682 144.844 16.4766C144.599 16.6849 144.305 16.8516 143.961 16.9766C143.622 17.0964 143.221 17.1562 142.758 17.1562ZM142.961 16.0781C143.878 16.0781 144.526 15.8177 144.906 15.2969C145.286 14.776 145.477 14.0026 145.477 12.9766V12.7422C145.477 11.6536 145.294 10.8177 144.93 10.2344C144.57 9.65104 143.914 9.35938 142.961 9.35938C142.164 9.35938 141.568 9.66667 141.172 10.2812C140.776 10.8906 140.578 11.724 140.578 12.7812C140.578 13.8333 140.773 14.6458 141.164 15.2188C141.56 15.7917 142.159 16.0781 142.961 16.0781ZM152.805 8.28125C153.534 8.28125 154.159 8.44271 154.68 8.76562C155.201 9.08854 155.599 9.54167 155.875 10.125C156.151 10.7031 156.289 11.3802 156.289 12.1562V12.9609H150.375C150.391 13.9661 150.641 14.7318 151.125 15.2578C151.609 15.7839 152.292 16.0469 153.172 16.0469C153.714 16.0469 154.193 15.9974 154.609 15.8984C155.026 15.7995 155.458 15.6536 155.906 15.4609V16.6016C155.474 16.7943 155.044 16.9349 154.617 17.0234C154.195 17.112 153.695 17.1562 153.117 17.1562C152.294 17.1562 151.576 16.9896 150.961 16.6562C150.352 16.3177 149.878 15.8229 149.539 15.1719C149.201 14.5208 149.031 13.724 149.031 12.7812C149.031 11.8594 149.185 11.0625 149.492 10.3906C149.805 9.71354 150.242 9.19271 150.805 8.82812C151.372 8.46354 152.039 8.28125 152.805 8.28125ZM152.789 9.34375C152.096 9.34375 151.544 9.57031 151.133 10.0234C150.721 10.4766 150.477 11.1094 150.398 11.9219H154.93C154.924 11.4115 154.844 10.9635 154.688 10.5781C154.536 10.1875 154.305 9.88542 153.992 9.67188C153.68 9.45312 153.279 9.34375 152.789 9.34375Z" fill="#25171A"/>
<circle cx="8" cy="11" r="8" fill="#006D77"/>
</svg>
